<svg xmlns="http://www.w3.org/2000/svg" viewBox="0 0 487.16 719.51"><defs><style>.cls-1{fill:#ff9100;}.cls-2{fill:#fd0;}.cls-3{fill:#fff;}.cls-4{fill:#050505;}</style></defs><title>buy-me-a-coffee</title><g id="Layer_2" data-name="Layer 2"><g id="Layer_1-2" data-name="Layer 1"><g id="Page-1"><g id="_2.1" data-name="2.1"><g id="Group"><g id="Logo"><g id="Fill-1"><polygon class="cls-1" points="242.78 148.65 63.3 147.56 151.44 707.5 170.67 707.5 346.94 707.5 366.17 707.5 454.31 147.56 242.78 148.65"/></g><g id="Fill-2"><polygon class="cls-2" points="242.78 148.65 63.3 147.56 151.44 707.5 170.67 707.5 302.07 707.5 321.3 707.5 409.44 147.56 242.78 148.65"/></g><g id="Fill-3"><polygon class="cls-3" points="12.02 147.56 475.14 147.56 475.14 95.93 12.02 95.93 12.02 147.56"/></g><g id="Stroke-4"><path d="M487.16,159.59H0V83.91H487.16ZM24,135.55H463.12V108H24Z"/></g><g id="Fill-6"><polygon class="cls-3" points="385.4 12.02 274.83 12.02 209.13 12.02 98.55 12.02 64.9 89.47 209.13 89.47 274.83 89.47 419.06 89.47 385.4 12.02"/></g><g id="Group-11"><g id="Stroke-7"><path class="cls-4" d="M437.38,101.49H46.58L90.67,0H393.28Zm-354.15-24h317.5L377.52,24H106.44Z"/></g><g id="Stroke-9"><path d="M376.45,719.51H109.11l-91.93-584,225.6,1.15,225.6-1.15Zm-246.79-24H355.9l84.34-535.82-197.52,1-197.4-1Z"/></g></g><g id="Fill-12"><polygon class="cls-3" points="460.72 305.7 249.57 305.7 234.38 305.7 23.24 305.7 62.73 528.38 241.98 526.44 421.23 528.38 460.72 305.7"/></g><g id="Stroke-13"><path d="M431.28,540.51l-189.43-2-189.17,2L8.9,293.68H475.06ZM241.85,514.42l169.32,1.84,35.21-198.54H37.57L72.79,516.26Z"/></g></g></g></g></g></g></g></svg>